<svg xmlns="http://www.w3.org/2000/svg" viewBox="0 0 427 586" width="427" height="586">
  <path d="M 298 1 L 307 2 L 314 11 L 327 78 L 341 121 L 366 165 L 403 210 L 405 220 L 399 229 L 380 237 L 356 239 L 336 236 L 321 231 L 302 219 L 294 210 L 285 194 L 285 216 L 292 258 L 309 313 L 329 353 L 353 388 L 403 444 L 419 466 L 425 482 L 425 498 L 422 508 L 411 526 L 384 547 L 338 566 L 290 577 L 233 584 L 185 584 L 142 578 L 100 566 L 72 554 L 39 534 L 16 513 L 1 487 L 7 489 L 41 517 L 75 534 L 128 550 L 180 557 L 242 555 L 308 542 L 347 527 L 356 521 L 369 505 L 370 491 L 363 479 L 310 438 L 285 414 L 265 387 L 252 361 L 242 328 L 237 290 L 238 251 L 242 219 L 235 233 L 228 272 L 228 316 L 232 342 L 243 377 L 257 404 L 274 427 L 316 470 L 322 479 L 324 495 L 320 503 L 313 510 L 297 519 L 278 525 L 231 532 L 170 532 L 124 526 L 74 513 L 35 495 L 21 485 L 9 472 L 3 460 L 1 450 L 3 437 L 10 425 L 77 368 L 104 338 L 128 302 L 151 251 L 166 198 L 175 132 L 175 77 L 171 44 L 165 21 L 159 9 L 151 2 L 159 3 L 206 29 L 234 36 L 248 35 L 266 28 L 292 4 L 297 2 Z" fill="currentColor"/>
  <path d="M 145 4 L 147 4 L 147 16 L 163 62 L 168 98 L 166 146 L 159 172 L 152 187 L 144 199 L 131 212 L 121 219 L 98 229 L 59 235 L 37 233 L 25 229 L 17 221 L 19 211 L 50 186 L 73 163 L 98 126 L 118 76 L 132 23 L 137 12 L 144 5 Z" fill="currentColor"/>
</svg>