<svg xmlns="http://www.w3.org/2000/svg" viewBox="0 0 241 280">
  <path d="M 113 0 L 131 0 L 146 5 L 128 1 L 114 2 L 101 6 L 84 16 L 96 7 L 112 1 Z" fill="currentColor"/>
  <path d="M 164 16 L 174 25 L 180 38 L 180 67 L 172 83 L 168 84 L 164 91 L 164 64 L 153 59 L 145 58 L 85 63 L 85 91 L 84 86 L 78 82 L 76 84 L 85 107 L 87 106 L 86 94 L 93 123 L 106 134 L 120 141 L 130 143 L 147 135 L 154 128 L 158 120 L 156 129 L 157 140 L 163 144 L 186 152 L 170 149 L 185 164 L 159 147 L 154 156 L 146 164 L 133 171 L 137 222 L 137 253 L 134 258 L 126 259 L 121 255 L 117 244 L 116 175 L 108 167 L 95 164 L 89 168 L 88 181 L 78 201 L 79 227 L 75 232 L 70 230 L 69 221 L 76 184 L 81 172 L 93 158 L 87 148 L 73 155 L 59 166 L 75 151 L 65 152 L 45 159 L 24 170 L 4 185 L 23 169 L 39 161 L 77 148 L 89 142 L 92 138 L 91 149 L 93 154 L 98 159 L 115 166 L 134 166 L 142 163 L 152 154 L 156 142 L 155 132 L 145 140 L 131 145 L 114 143 L 104 138 L 93 127 L 92 132 L 90 114 L 81 103 L 76 84 L 72 77 L 82 84 L 82 70 L 77 72 L 70 70 L 66 48 L 68 36 L 72 28 L 68 39 L 68 61 L 73 71 L 77 71 L 80 65 L 88 60 L 74 60 L 76 59 L 138 55 L 96 59 L 117 60 L 147 58 L 165 61 L 165 72 L 168 77 L 177 70 L 180 62 L 178 60 L 162 58 L 174 59 L 178 57 L 180 43 L 174 27 L 165 17 Z" fill="currentColor"/>
  <path d="M 125 51 L 167 54 L 113 52 L 124 52 Z" fill="currentColor"/>
  <path d="M 92 53 L 108 53 L 74 56 L 91 54 Z" fill="currentColor"/>
  <path d="M 173 77 L 172 75 L 166 83 L 168 84 L 173 78 Z" fill="currentColor"/>
  <path d="M 163 94 L 161 104 L 164 105 L 164 107 L 159 117 L 163 95 Z" fill="currentColor"/>
  <path d="M 196 156 L 219 166 L 230 174 L 237 183 L 218 168 L 197 157 Z" fill="currentColor"/>
  <path d="M 122 173 L 125 239 L 127 250 L 131 255 L 132 242 L 128 175 L 126 169 L 122 170 L 122 172 Z" fill="currentColor"/>
</svg>